<?xml version="1.0" encoding="UTF-8"?>
<!DOCTYPE svg PUBLIC "-//W3C//DTD SVG 1.1//EN" "http://www.w3.org/Graphics/SVG/1.1/DTD/svg11.dtd">
<!-- Creator: CorelDRAW 2018 (64-Bit) -->
<svg xmlns="http://www.w3.org/2000/svg" xml:space="preserve" width="2.04508in" height="1.53596in" version="1.1" style="shape-rendering:geometricPrecision; text-rendering:geometricPrecision; image-rendering:optimizeQuality; fill-rule:evenodd; clip-rule:evenodd"
viewBox="0 0 755.93 567.74"
 xmlns:xlink="http://www.w3.org/1999/xlink">
 <defs>
  <style type="text/css">
   <![CDATA[
    .fil1 {fill:#505050}
    .fil2 {fill:#636363}
    .fil3 {fill:#6C6C6C}
    .fil0 {fill:#7B7B7B}
   ]]>
  </style>
 </defs>
 <g id="Layer_x0020_1">
  <metadata id="CorelCorpID_0Corel-Layer"/>
  <g id="_2103649595488">
   <g id="_2354864359904">
    <path class="fil0" d="M472.99 567.51l0 -140.04c-58.59,0 -117.18,0 -175.77,0 -35.72,0 -54.3,-2.86 -77.16,12.86 -42.87,28.58 -38.58,88.6 0,114.32 21.43,15.72 40.01,12.86 75.73,12.86 58.59,0 118.61,0 177.19,0l0 -0z"/>
    <path class="fil0" d="M472.99 140.24l0 -140.04c-58.59,0 -117.18,0 -175.77,0 -37.15,0 -54.3,-2.86 -77.16,12.86 -28.58,18.58 -41.44,60.02 -21.43,91.46 24.29,40.01 54.3,35.73 97.17,35.73 58.59,0 118.61,0 177.19,0l0 -0z"/>
    <path class="fil1" d="M472.99 140.24c58.59,0 117.18,0 175.77,0 32.87,0 57.16,2.86 77.16,-11.43 17.15,-12.86 28.58,-31.44 30.01,-50.01l0 -17.15c-1.43,-18.58 -11.43,-35.73 -30.01,-48.59 -20.01,-15.72 -41.44,-12.86 -75.74,-12.86 -58.59,0 -118.61,0 -177.19,0l0 140.04z"/>
    <path class="fil1" d="M472.99 567.51c58.59,0 117.18,0 175.77,0 32.87,0 55.73,2.86 77.16,-11.43 17.15,-12.86 28.58,-31.44 30.01,-51.44l0 -14.29c-1.43,-18.58 -11.43,-37.15 -30.01,-50.01 -20.01,-15.72 -42.87,-12.86 -75.74,-12.86 -58.59,0 -118.61,0 -177.19,0l0 140.04z"/>
    <path class="fil0" d="M472.99 353.16l0 -138.61c-58.59,0 -117.18,0 -175.77,0 -35.72,0 -55.73,-4.29 -77.16,11.43 -28.58,20.01 -40.01,58.59 -21.43,91.45 21.43,41.44 58.59,35.73 97.17,35.73 58.59,0 117.18,0 177.19,0l0 -0z"/>
    <path class="fil1" d="M687.34 353.16c21.43,2.86 38.58,-10 48.59,-20.01 12.86,-11.43 18.58,-25.72 20.01,-38.58l0 -18.57c-4.29,-34.3 -35.73,-65.73 -68.59,-61.45l-214.35 0 0 138.61 214.35 0z"/>
    <path class="fil0" d="M70.02 140.24l0 -140.04c-38.58,0 -68.59,30.01 -70.02,67.16l0 5.72c1.43,38.58 32.87,67.16 70.02,67.16l0 -0z"/>
    <path class="fil0" d="M70.02 567.51l0 -140.04c-37.15,0 -68.59,30.01 -70.02,67.16l0 4.29c1.43,38.58 31.44,68.59 70.02,68.59z"/>
    <path class="fil2" d="M70.02 353.16l5.72 0c15.72,0 30.01,-7.15 42.87,-18.58 5.72,-5.72 10,-12.86 14.29,-21.43 12.86,-27.15 5.72,-60.02 -12.86,-78.59 -8.57,-8.57 -22.86,-17.15 -35.73,-18.58l-14.29 -1.43 0 138.61 0 -0z"/>
    <path class="fil2" d="M70.02 567.51c61.45,0 94.31,-74.31 48.59,-118.61 -10,-11.43 -27.15,-21.43 -48.59,-21.43l0 140.04z"/>
    <path class="fil2" d="M70.02 140.24c58.59,0 94.31,-72.88 48.59,-118.61 -11.43,-11.43 -25.72,-21.43 -48.59,-21.43l0 140.04z"/>
    <path class="fil0" d="M70.02 353.16l0 -138.61c-24.29,0 -37.15,8.57 -50.01,20.01 -11.43,12.86 -18.58,27.15 -20.01,42.87l0 14.29c2.86,32.87 30.01,61.45 70.02,61.45l0 0z"/>
    <path class="fil3" d="M472.99 353.16c5.72,4.29 85.74,1.43 105.74,1.43l102.89 0c7.15,0 2.86,0 5.72,-1.43l-214.35 0 0 -138.61 214.35 0c-5.72,-2.86 -45.73,-1.43 -52.87,-1.43 -11.43,0 -155.76,-2.86 -161.48,1.43l0 138.61z"/>
   </g>
  </g>
 </g>
</svg>
